<svg xmlns="http://www.w3.org/2000/svg" xmlns:xlink="http://www.w3.org/1999/xlink" version="1.1" width="1000" height="1000" viewBox="0 0 1000 1000" xml:space="preserve">
<desc>Created with Fabric.js 3.5.0</desc>
<defs>
</defs>
<rect x="0" y="0" width="100%" height="100%" fill="#ffffff"/>
<g transform="matrix(1.0375 0 0 1.0375 500.0107 476.5054)" id="7937">
<g style="">
		<g transform="matrix(0.5713 0 0 0.5713 -276.4277 -9.9391)" id="710356">
<path style="stroke: none; stroke-width: 1; stroke-dasharray: none; stroke-linecap: butt; stroke-dashoffset: 0; stroke-linejoin: miter; stroke-miterlimit: 4; is-custom-font: none; font-file-url: none; fill: rgb(0,0,0); fill-rule: nonzero; opacity: 1;" vector-effect="non-scaling-stroke" transform=" translate(-255.974, -256.05)" d="M 256 448 c 141.4 0 256 -93.1 256 -208 S 397.4 32 256 32 S 0 125.1 0 240 c 0 45.1 17.7 86.8 47.7 120.9 c -1.9 24.5 -11.4 46.3 -21.4 62.9 c -5.5 9.2 -11.1 16.6 -15.2 21.6 c -2.1 2.5 -3.7 4.4 -4.9 5.7 c -0.6 0.6 -1 1.1 -1.3 1.4 l -0.3 0.3 l 0 0 l 0 0 l 0 0 l 0 0 c -4.6 4.6 -5.9 11.4 -3.4 17.4 c 2.5 6 8.3 9.9 14.8 9.9 c 28.7 0 57.6 -8.9 81.6 -19.3 c 22.9 -10 42.4 -21.9 54.3 -30.6 c 31.8 11.5 67 17.9 104.1 17.9 z M 202.9 176.8 c 6.5 -2.2 13.7 0.1 17.9 5.6 L 256 229.3 l 35.2 -46.9 c 4.1 -5.5 11.3 -7.8 17.9 -5.6 s 10.9 8.3 10.9 15.2 v 96 c 0 8.8 -7.2 16 -16 16 s -16 -7.2 -16 -16 V 240 l -19.2 25.6 c -3 4 -7.8 6.4 -12.8 6.4 s -9.8 -2.4 -12.8 -6.4 L 224 240 v 48 c 0 8.8 -7.2 16 -16 16 s -16 -7.2 -16 -16 V 192 c 0 -6.9 4.4 -13 10.9 -15.2 z m 173.1 38 c 0 0.2 0 0.4 0 0.4 c 0.1 0.1 0.6 0.8 2.2 1.7 c 3.9 2.3 9.6 4.1 18.3 6.8 l 0.6 0.2 c 7.4 2.2 17.3 5.2 25.2 10.2 c 9.1 5.7 17.4 15.2 17.6 29.9 c 0.2 15 -7.6 26 -17.8 32.3 c -9.5 5.9 -20.9 7.9 -30.7 7.6 c -12.2 -0.4 -23.7 -4.4 -32.6 -7.4 l 0 0 l 0 0 c -1.4 -0.5 -2.7 -0.9 -4 -1.4 c -8.4 -2.8 -12.9 -11.9 -10.1 -20.2 s 11.9 -12.9 20.2 -10.1 c 1.7 0.6 3.3 1.1 4.9 1.6 l 0 0 l 0 0 c 9.1 3.1 15.6 5.3 22.6 5.5 c 5.3 0.2 10 -1 12.8 -2.8 c 1.2 -0.8 1.8 -1.5 2.1 -2 c 0.2 -0.4 0.6 -1.2 0.6 -2.7 l 0 -0.2 c 0 -0.7 0 -1.4 -2.7 -3.1 c -3.8 -2.4 -9.6 -4.3 -18 -6.9 l -1.2 -0.4 c -7.2 -2.2 -16.7 -5 -24.3 -9.6 c -9 -5.4 -17.7 -14.7 -17.7 -29.4 c -0.1 -15.2 8.6 -25.7 18.5 -31.6 c 9.4 -5.5 20.5 -7.5 29.7 -7.4 c 10 0.2 19.7 2.3 27.9 4.4 c 8.5 2.3 13.6 11 11.3 19.6 s -11 13.6 -19.6 11.3 c -7.3 -1.9 -14.1 -3.3 -20.1 -3.4 c -4.9 -0.1 -9.8 1.1 -12.9 2.9 c -1.4 0.8 -2.1 1.6 -2.4 2 c -0.2 0.3 -0.4 0.8 -0.4 1.9 z m -272 0 c 0 0.2 0 0.4 0 0.4 c 0.1 0.1 0.6 0.8 2.2 1.7 c 3.9 2.3 9.6 4.1 18.3 6.8 l 0.6 0.2 c 7.4 2.2 17.3 5.2 25.2 10.2 c 9.1 5.7 17.4 15.2 17.6 29.9 c 0.2 15 -7.6 26 -17.8 32.3 c -9.5 5.9 -20.9 7.9 -30.7 7.6 c -12.3 -0.4 -24.2 -4.5 -33.2 -7.6 l 0 0 l 0 0 c -1.3 -0.4 -2.5 -0.8 -3.6 -1.2 c -8.4 -2.8 -12.9 -11.9 -10.1 -20.2 s 11.9 -12.9 20.2 -10.1 c 1.4 0.5 2.8 0.9 4.1 1.4 l 0 0 l 0 0 c 9.5 3.2 16.5 5.6 23.7 5.8 c 5.3 0.2 10 -1 12.8 -2.8 c 1.2 -0.8 1.8 -1.5 2.1 -2 c 0.2 -0.4 0.6 -1.2 0.6 -2.7 l 0 -0.2 c 0 -0.7 0 -1.4 -2.7 -3.1 c -3.8 -2.4 -9.6 -4.3 -18 -6.9 l -1.2 -0.4 l 0 0 c -7.2 -2.2 -16.7 -5 -24.3 -9.6 C 80.8 239 72.1 229.7 72 215 c -0.1 -15.2 8.6 -25.7 18.5 -31.6 c 9.4 -5.5 20.5 -7.5 29.7 -7.4 c 9.5 0.1 22.2 2.1 31.1 4.4 c 8.5 2.3 13.6 11 11.3 19.6 s -11 13.6 -19.6 11.3 c -6.6 -1.8 -16.8 -3.3 -23.3 -3.4 c -4.9 -0.1 -9.8 1.1 -12.9 2.9 c -1.4 0.8 -2.1 1.6 -2.4 2 c -0.2 0.3 -0.4 0.8 -0.4 1.9 z" stroke-linecap="round"/>
</g>
		<g transform="matrix(1 0 0 1 102.6953 0)" id="243426">
<path style="stroke: none; stroke-width: 1; stroke-dasharray: none; stroke-linecap: butt; stroke-dashoffset: 0; stroke-linejoin: miter; stroke-miterlimit: 4; is-custom-font: none; font-file-url: none; fill: rgb(0,0,0); fill-rule: nonzero; opacity: 1;" vector-effect="non-scaling-stroke" transform=" translate(-320, -256)" d="M 96 128 a 128 128 0 1 1 256 0 A 128 128 0 1 1 96 128 z M 0 482.3 C 0 383.8 79.8 304 178.3 304 h 91.4 C 368.2 304 448 383.8 448 482.3 c 0 16.4 -13.3 29.7 -29.7 29.7 H 29.7 C 13.3 512 0 498.7 0 482.3 z M 504 312 V 248 H 440 c -13.3 0 -24 -10.7 -24 -24 s 10.7 -24 24 -24 h 64 V 136 c 0 -13.3 10.7 -24 24 -24 s 24 10.7 24 24 v 64 h 64 c 13.3 0 24 10.7 24 24 s -10.7 24 -24 24 H 552 v 64 c 0 13.3 -10.7 24 -24 24 s -24 -10.7 -24 -24 z" stroke-linecap="round"/>
</g>
</g>
</g>
</svg>